<svg width="297" height="60" viewBox="0 0 297 60" fill="none" xmlns="http://www.w3.org/2000/svg">
<path d="M0 48H36V44H0M36 22H32V16H36M36 12H4V32C4 34.1217 4.84285 36.1566 6.34315 37.6569C7.84344 39.1571 9.87827 40 12 40H24C26.1217 40 28.1566 39.1571 29.6569 37.6569C31.1571 36.1566 32 34.1217 32 32V26H36C37.0609 26 38.0783 25.5786 38.8284 24.8284C39.5786 24.0783 40 23.0609 40 22V16C40 14.9391 39.5786 13.9217 38.8284 13.1716C38.0783 12.4214 37.0609 12 36 12Z" fill="url(#paint0_linear_1_9)"/>
<path d="M64.2 15.92V32.72C64.2 34.4 64.6133 35.6933 65.44 36.6C66.2667 37.5067 67.48 37.96 69.08 37.96C70.68 37.96 71.9067 37.5067 72.76 36.6C73.6133 35.6933 74.04 34.4 74.04 32.72V15.92H80.88V32.68C80.88 35.1867 80.3467 37.3067 79.28 39.04C78.2133 40.7733 76.7733 42.08 74.96 42.96C73.1733 43.84 71.1733 44.28 68.96 44.28C66.7467 44.28 64.76 43.8533 63 43C61.2667 42.12 59.8933 40.8133 58.88 39.08C57.8667 37.32 57.36 35.1867 57.36 32.68V15.92H64.2ZM102.683 29.6C104.31 29.9467 105.616 30.76 106.603 32.04C107.59 33.2933 108.083 34.7333 108.083 36.36C108.083 38.7067 107.256 40.5733 105.603 41.96C103.976 43.32 101.696 44 98.7631 44H85.6831V15.92H98.3231C101.176 15.92 103.403 16.5733 105.003 17.88C106.63 19.1867 107.443 20.96 107.443 23.2C107.443 24.8533 107.003 26.2267 106.123 27.32C105.27 28.4133 104.123 29.1733 102.683 29.6ZM92.5231 27.28H97.0031C98.1231 27.28 98.9765 27.04 99.5631 26.56C100.176 26.0533 100.483 25.32 100.483 24.36C100.483 23.4 100.176 22.6667 99.5631 22.16C98.9765 21.6533 98.1231 21.4 97.0031 21.4H92.5231V27.28ZM97.5631 38.48C98.7098 38.48 99.5898 38.2267 100.203 37.72C100.843 37.1867 101.163 36.4267 101.163 35.44C101.163 34.4533 100.83 33.68 100.163 33.12C99.5231 32.56 98.6298 32.28 97.4831 32.28H92.5231V38.48H97.5631ZM129.53 39.04H119.05L117.37 44H110.21L120.37 15.92H128.29L138.45 44H131.21L129.53 39.04ZM127.77 33.76L124.29 23.48L120.85 33.76H127.77ZM148.859 29.92C148.859 27.1467 149.459 24.68 150.659 22.52C151.859 20.3333 153.526 18.64 155.659 17.44C157.819 16.2133 160.259 15.6 162.979 15.6C166.312 15.6 169.166 16.48 171.539 18.24C173.912 20 175.499 22.4 176.299 25.44H168.779C168.219 24.2667 167.419 23.3733 166.379 22.76C165.366 22.1467 164.206 21.84 162.899 21.84C160.792 21.84 159.086 22.5733 157.779 24.04C156.472 25.5067 155.819 27.4667 155.819 29.92C155.819 32.3733 156.472 34.3333 157.779 35.8C159.086 37.2667 160.792 38 162.899 38C164.206 38 165.366 37.6933 166.379 37.08C167.419 36.4667 168.219 35.5733 168.779 34.4H176.299C175.499 37.44 173.912 39.84 171.539 41.6C169.166 43.3333 166.312 44.2 162.979 44.2C160.259 44.2 157.819 43.6 155.659 42.4C153.526 41.1733 151.859 39.48 150.659 37.32C149.459 35.16 148.859 32.6933 148.859 29.92ZM193.768 44.28C191.128 44.28 188.701 43.6667 186.488 42.44C184.301 41.2133 182.554 39.5067 181.248 37.32C179.968 35.1067 179.328 32.6267 179.328 29.88C179.328 27.1333 179.968 24.6667 181.248 22.48C182.554 20.2933 184.301 18.5867 186.488 17.36C188.701 16.1333 191.128 15.52 193.768 15.52C196.408 15.52 198.821 16.1333 201.008 17.36C203.221 18.5867 204.954 20.2933 206.208 22.48C207.488 24.6667 208.128 27.1333 208.128 29.88C208.128 32.6267 207.488 35.1067 206.208 37.32C204.928 39.5067 203.194 41.2133 201.008 42.44C198.821 43.6667 196.408 44.28 193.768 44.28ZM193.768 38.04C196.008 38.04 197.794 37.2933 199.128 35.8C200.488 34.3067 201.168 32.3333 201.168 29.88C201.168 27.4 200.488 25.4267 199.128 23.96C197.794 22.4667 196.008 21.72 193.768 21.72C191.501 21.72 189.688 22.4533 188.328 23.92C186.994 25.3867 186.328 27.3733 186.328 29.88C186.328 32.36 186.994 34.3467 188.328 35.84C189.688 37.3067 191.501 38.04 193.768 38.04ZM230.213 15.92V21.4H218.773V27.32H227.333V32.64H218.773V44H211.933V15.92H230.213ZM252.088 15.92V21.4H240.648V27.32H249.208V32.64H240.648V44H233.808V15.92H252.088ZM262.523 21.4V27.08H271.683V32.36H262.523V38.52H272.883V44H255.683V15.92H272.883V21.4H262.523ZM284.164 21.4V27.08H293.324V32.36H284.164V38.52H294.524V44H277.324V15.92H294.524V21.4H284.164Z" fill="url(#paint1_linear_1_9)"/>
<defs>
<linearGradient id="paint0_linear_1_9" x1="20" y1="12" x2="20" y2="48" gradientUnits="userSpaceOnUse">
<stop stop-color="#D97706"/>
<stop offset="1" stop-color="#E85400"/>
</linearGradient>
<linearGradient id="paint1_linear_1_9" x1="176" y1="0" x2="176" y2="60" gradientUnits="userSpaceOnUse">
<stop stop-color="#D97706"/>
<stop offset="1" stop-color="#E85400"/>
</linearGradient>
</defs>
</svg>
